<svg width="14" height="12" viewBox="0 0 14 12" fill="none" xmlns="http://www.w3.org/2000/svg">
<path d="M12.71 5.29002L7.71 0.290018C7.6149 0.198978 7.50275 0.127613 7.38 0.0800184C7.13654 -0.0199996 6.86346 -0.0199996 6.62 0.0800184C6.49725 0.127613 6.38511 0.198978 6.29 0.290018L1.29 5.29002C1.19676 5.38326 1.1228 5.49395 1.07234 5.61577C1.02188 5.73759 0.995911 5.86816 0.995911 6.00002C0.995911 6.26632 1.1017 6.52172 1.29 6.71002C1.47831 6.89832 1.7337 7.00411 2 7.00411C2.2663 7.00411 2.5217 6.89832 2.71 6.71002L6 3.41002V11C6 11.2652 6.10536 11.5196 6.2929 11.7071C6.48043 11.8947 6.73479 12 7 12C7.26522 12 7.51957 11.8947 7.70711 11.7071C7.89465 11.5196 8 11.2652 8 11V3.41002L11.29 6.71002C11.383 6.80375 11.4936 6.87814 11.6154 6.92891C11.7373 6.97968 11.868 7.00582 12 7.00582C12.132 7.00582 12.2627 6.97968 12.3846 6.92891C12.5064 6.87814 12.617 6.80375 12.71 6.71002C12.8037 6.61706 12.8781 6.50645 12.9289 6.3846C12.9797 6.26274 13.0058 6.13203 13.0058 6.00002C13.0058 5.86801 12.9797 5.7373 12.9289 5.61544C12.8781 5.49358 12.8037 5.38298 12.71 5.29002Z" fill="#202936"/>
</svg>
