<svg width="18" height="14" viewBox="0 0 18 14" fill="none" xmlns="http://www.w3.org/2000/svg">
<path d="M17.0915 8.12477C17.014 8.04667 16.9219 7.98467 16.8203 7.94236C16.7188 7.90006 16.6098 7.87827 16.4998 7.87827C16.3898 7.87827 16.2809 7.90006 16.1794 7.94236C16.0778 7.98467 15.9856 8.04667 15.9082 8.12477L13.4748 10.5581V3.89144C13.4748 3.00738 13.1236 2.15954 12.4985 1.53442C11.8734 0.909295 11.0256 0.558105 10.1415 0.558105H1.49984C1.27882 0.558105 1.06686 0.645903 0.910582 0.802183C0.754301 0.958464 0.666504 1.17043 0.666504 1.39144C0.666504 1.61245 0.754301 1.82441 0.910582 1.98069C1.06686 2.13697 1.27882 2.22477 1.49984 2.22477H10.1415C10.5835 2.22477 11.0075 2.40037 11.32 2.71293C11.6326 3.02549 11.8082 3.44941 11.8082 3.89144V10.5581L9.37484 8.12477C9.21902 7.96454 9.00594 7.87276 8.78246 7.86964C8.55897 7.86651 8.34341 7.95229 8.18317 8.10811C8.02294 8.26392 7.93116 8.47701 7.92804 8.70049C7.92491 8.92397 8.01069 9.13954 8.1665 9.29977L12.0165 13.1581C12.0973 13.2342 12.1902 13.2961 12.2915 13.3414C12.3913 13.3855 12.4991 13.4083 12.6082 13.4083C12.7172 13.4083 12.8251 13.3855 12.9248 13.3414C13.0278 13.2993 13.1213 13.237 13.1998 13.1581L17.0582 9.29977C17.2179 9.14809 17.3111 8.93933 17.3173 8.71915C17.3235 8.49897 17.2424 8.28527 17.0915 8.12477Z" fill="white"/>
</svg>
